<?xml version="1.0" standalone="no"?>
<svg xmlns:xlink="http://www.w3.org/1999/xlink" id="wave" style="transform:rotate(180deg); transition: 0.3s" viewBox="0 0 1440 140" version="1.1" xmlns="http://www.w3.org/2000/svg"><defs><linearGradient id="sw-gradient-0" x1="0" x2="0" y1="1" y2="0"><stop stop-color="rgba(255, 249, 234, 1)" offset="0%"/><stop stop-color="rgba(255, 179, 11, 1)" offset="100%"/></linearGradient></defs><path style="transform:translate(0, 0px); opacity:1" fill="url(#sw-gradient-0)" d="M0,0L40,0C80,0,160,0,240,21C320,42,400,84,480,88.7C560,93,640,61,720,49C800,37,880,47,960,60.7C1040,75,1120,93,1200,95.7C1280,98,1360,84,1440,74.7C1520,65,1600,61,1680,53.7C1760,47,1840,37,1920,37.3C2000,37,2080,47,2160,44.3C2240,42,2320,28,2400,21C2480,14,2560,14,2640,18.7C2720,23,2800,33,2880,44.3C2960,56,3040,70,3120,77C3200,84,3280,84,3360,84C3440,84,3520,84,3600,72.3C3680,61,3760,37,3840,39.7C3920,42,4000,70,4080,72.3C4160,75,4240,51,4320,39.7C4400,28,4480,28,4560,44.3C4640,61,4720,93,4800,98C4880,103,4960,79,5040,67.7C5120,56,5200,56,5280,67.7C5360,79,5440,103,5520,100.3C5600,98,5680,70,5720,56L5760,42L5760,140L5720,140C5680,140,5600,140,5520,140C5440,140,5360,140,5280,140C5200,140,5120,140,5040,140C4960,140,4880,140,4800,140C4720,140,4640,140,4560,140C4480,140,4400,140,4320,140C4240,140,4160,140,4080,140C4000,140,3920,140,3840,140C3760,140,3680,140,3600,140C3520,140,3440,140,3360,140C3280,140,3200,140,3120,140C3040,140,2960,140,2880,140C2800,140,2720,140,2640,140C2560,140,2480,140,2400,140C2320,140,2240,140,2160,140C2080,140,2000,140,1920,140C1840,140,1760,140,1680,140C1600,140,1520,140,1440,140C1360,140,1280,140,1200,140C1120,140,1040,140,960,140C880,140,800,140,720,140C640,140,560,140,480,140C400,140,320,140,240,140C160,140,80,140,40,140L0,140Z"/></svg>